<svg width="929" height="254" viewBox="0 0 929 254" fill="none" xmlns="http://www.w3.org/2000/svg">
<path d="M270.713 189.152C257.945 189.152 247.721 186.752 240.041 181.952C232.361 177.056 228.521 169.616 228.521 159.632C228.521 154.352 229.433 150.32 231.257 147.536C233.081 144.752 235.769 143.36 239.321 143.36C241.913 143.36 244.025 144.032 245.657 145.376C247.289 146.72 248.105 148.448 248.105 150.56C248.105 152.48 247.961 154.16 247.673 155.6C247.673 155.984 247.577 156.656 247.385 157.616C247.289 158.576 247.241 159.584 247.241 160.64C247.241 164.96 249.401 168.176 253.721 170.288C258.137 172.4 264.281 173.456 272.153 173.456C280.313 173.456 286.697 172.016 291.305 169.136C295.913 166.16 298.217 162.032 298.217 156.752C298.217 153.488 297.161 150.704 295.049 148.4C292.937 146 290.297 144.032 287.129 142.496C283.961 140.864 279.497 138.896 273.737 136.592C266.345 133.712 260.297 130.976 255.593 128.384C250.985 125.792 247.001 122.288 243.641 117.872C240.377 113.36 238.745 107.792 238.745 101.168C238.745 94.256 240.569 88.112 244.217 82.736C247.961 77.36 253.289 73.184 260.201 70.208C267.209 67.232 275.417 65.744 284.825 65.744C291.833 65.744 298.265 66.8 304.121 68.912C309.977 70.928 314.633 74.048 318.089 78.272C321.641 82.496 323.417 87.68 323.417 93.824C323.417 99.872 322.505 104.432 320.681 107.504C318.857 110.576 316.169 112.112 312.617 112.112C310.121 112.112 308.009 111.344 306.281 109.808C304.649 108.272 303.833 106.448 303.833 104.336C303.833 102.512 303.977 100.832 304.265 99.296C304.553 96.416 304.697 94.592 304.697 93.824C304.697 89.792 302.729 86.72 298.793 84.608C294.857 82.496 289.961 81.44 284.105 81.44C275.849 81.44 269.513 82.976 265.097 86.048C260.777 89.024 258.617 93.248 258.617 98.72C258.617 102.368 259.721 105.488 261.929 108.08C264.233 110.672 267.065 112.832 270.425 114.56C273.785 116.288 278.489 118.352 284.537 120.752C291.833 123.728 297.689 126.416 302.105 128.816C306.521 131.216 310.265 134.48 313.337 138.608C316.505 142.736 318.089 147.824 318.089 153.872C318.089 165.2 313.769 173.936 305.129 180.08C296.585 186.128 285.113 189.152 270.713 189.152ZM451.917 156.176C453.165 156.176 454.125 156.8 454.797 158.048C455.565 159.2 455.949 160.688 455.949 162.512C455.949 164.72 455.613 166.448 454.941 167.696C454.269 168.944 453.213 170.048 451.773 171.008C446.109 174.752 437.085 180.896 424.701 189.44C420.957 209.312 416.109 224.96 410.157 236.384C404.205 247.808 396.669 253.52 387.549 253.52C382.653 253.52 378.669 251.984 375.597 248.912C372.525 245.936 370.989 242 370.989 237.104C370.989 232.592 371.997 228.032 374.013 223.424C376.029 218.816 379.773 213.488 385.245 207.44C390.813 201.392 398.637 194.48 408.717 186.704L409.149 183.968C401.565 187.136 394.125 188.72 386.829 188.72C376.077 188.72 366.621 186.656 358.461 182.528C350.301 178.304 343.965 172.352 339.453 164.672C334.941 156.992 332.685 148.064 332.685 137.888C332.685 123.68 335.373 111.152 340.749 100.304C346.125 89.36 353.517 80.912 362.925 74.96C372.429 68.912 383.037 65.888 394.749 65.888C405.981 65.888 414.381 68.528 419.949 73.808C425.613 78.992 428.445 85.904 428.445 94.544C428.445 100.208 427.389 104.768 425.277 108.224C423.261 111.584 420.333 113.264 416.493 113.264C413.901 113.264 411.789 112.64 410.157 111.392C408.621 110.144 407.853 108.416 407.853 106.208C407.853 105.248 408.045 103.616 408.429 101.312C409.005 98.624 409.293 96.512 409.293 94.976C409.293 90.944 408.045 87.824 405.549 85.616C403.149 83.408 399.069 82.304 393.309 82.304C386.301 82.304 379.773 84.32 373.725 88.352C367.773 92.384 362.973 98.432 359.325 106.496C355.677 114.464 353.853 124.064 353.853 135.296C353.853 146.816 356.973 155.744 363.213 162.08C369.549 168.32 378.669 171.44 390.573 171.44C397.197 171.44 404.109 169.952 411.309 166.976L413.325 149.408H398.637C395.949 149.408 393.885 148.784 392.445 147.536C391.005 146.192 390.285 144.032 390.285 141.056C390.285 138.368 391.005 136.256 392.445 134.72C393.885 133.184 395.805 132.416 398.205 132.416H425.133C427.245 132.416 428.973 133.136 430.317 134.576C431.757 135.92 432.333 137.888 432.045 140.48C431.757 143.552 430.797 150.512 429.165 161.36L427.581 172.304C435.261 166.544 442.269 161.552 448.605 157.328C449.853 156.56 450.957 156.176 451.917 156.176ZM389.133 239.552C391.629 239.552 394.365 236.72 397.341 231.056C400.317 225.392 403.101 216.272 405.693 203.696C398.397 209.936 393.117 215.552 389.853 220.544C386.685 225.632 385.101 230.096 385.101 233.936C385.101 237.68 386.445 239.552 389.133 239.552ZM558.7 102.176C558.7 110.336 556.588 117.824 552.364 124.64C548.14 131.456 541.996 137.024 533.932 141.344C525.868 145.664 516.268 148.208 505.132 148.976L498.94 183.68C496.54 197.024 490.012 203.696 479.356 203.696C473.5 203.696 468.076 201.968 463.084 198.512C458.188 195.056 454.252 189.776 451.276 182.672C448.3 175.568 446.812 166.832 446.812 156.464C446.812 136.976 449.932 120.464 456.172 106.928C462.508 93.296 470.956 83.12 481.516 76.4C492.172 69.584 503.884 66.176 516.652 66.176C525.676 66.176 533.308 67.76 539.548 70.928C545.884 74.096 550.636 78.416 553.804 83.888C557.068 89.264 558.7 95.36 558.7 102.176ZM507.724 134.144C527.404 131.648 537.244 121.424 537.244 103.472C537.244 97.136 535.132 92 530.908 88.064C526.78 84.032 520.348 82.016 511.612 82.016C501.724 82.016 493.084 85.136 485.692 91.376C478.396 97.616 472.732 106.304 468.7 117.44C464.764 128.48 462.796 141.104 462.796 155.312C462.796 161.264 463.372 166.544 464.524 171.152C465.772 175.76 467.308 179.36 469.132 181.952C471.052 184.448 472.876 185.696 474.604 185.696C477.004 185.696 478.828 182.384 480.076 175.76L484.828 148.544C481.084 147.968 479.452 147.728 479.932 147.824C477.052 147.344 475.18 146.48 474.316 145.232C473.452 143.888 473.02 142.208 473.02 140.192C473.02 138.08 473.596 136.4 474.748 135.152C475.996 133.904 477.676 133.28 479.788 133.28C480.748 133.28 481.468 133.328 481.948 133.424C484.252 133.808 486.028 134.048 487.276 134.144C488.524 126.656 490.3 116.624 492.604 104.048C493.18 100.784 494.476 98.48 496.492 97.136C498.604 95.696 501.052 94.976 503.836 94.976C507.004 94.976 509.26 95.6 510.604 96.848C512.044 98 512.764 99.872 512.764 102.464C512.764 104 512.668 105.248 512.476 106.208L507.724 134.144ZM642.895 155.888C644.143 155.888 645.103 156.464 645.775 157.616C646.543 158.768 646.927 160.352 646.927 162.368C646.927 166.208 646.015 169.184 644.191 171.296C639.775 176.384 635.215 180.56 630.511 183.824C625.903 187.088 620.623 188.72 614.671 188.72C609.775 188.72 606.079 187.328 603.583 184.544C601.087 181.664 599.839 177.536 599.839 172.16C599.839 169.472 600.511 164.672 601.855 157.76C603.103 151.712 603.727 147.536 603.727 145.232C603.727 143.696 603.199 142.928 602.143 142.928C600.895 142.928 599.119 144.56 596.815 147.824C594.511 150.992 592.207 155.216 589.903 160.496C587.599 165.776 585.727 171.344 584.287 177.2C582.463 184.88 577.951 188.72 570.751 188.72C567.871 188.72 565.951 187.712 564.991 185.696C564.127 183.584 563.695 179.84 563.695 174.464C563.695 171.392 563.743 168.944 563.839 167.12L563.983 155.6C563.983 140.816 565.471 125.408 568.447 109.376C571.519 93.344 575.983 79.904 581.839 69.056C587.791 58.112 594.895 52.64 603.151 52.64C607.567 52.64 611.119 54.56 613.807 58.4C616.591 62.144 617.983 67.04 617.983 73.088C617.983 82.784 615.151 92.864 609.487 103.328C603.823 113.696 594.607 125.84 581.839 139.76C581.551 144.752 581.407 149.888 581.407 155.168C584.575 147.008 588.079 140.384 591.919 135.296C595.855 130.112 599.695 126.416 603.439 124.208C607.279 122 610.783 120.896 613.951 120.896C620.191 120.896 623.311 124.016 623.311 130.256C623.311 134 622.255 140.768 620.143 150.56C618.319 158.912 617.407 164.432 617.407 167.12C617.407 170.96 618.799 172.88 621.583 172.88C623.503 172.88 625.759 171.728 628.351 169.424C631.039 167.024 634.591 163.184 639.007 157.904C640.159 156.56 641.455 155.888 642.895 155.888ZM600.127 66.896C598.399 66.896 596.479 69.392 594.367 74.384C592.255 79.28 590.191 85.952 588.175 94.4C586.255 102.752 584.671 111.872 583.423 121.76C589.375 114.752 594.271 107.12 598.111 98.864C602.047 90.608 604.015 83.12 604.015 76.4C604.015 73.328 603.679 70.976 603.007 69.344C602.335 67.712 601.375 66.896 600.127 66.896ZM652.968 188.72C647.016 188.72 642.264 186.56 638.712 182.24C635.16 177.92 633.384 172.256 633.384 165.248C633.384 157.568 635.16 150.32 638.712 143.504C642.264 136.592 646.968 131.072 652.824 126.944C658.776 122.72 665.064 120.608 671.688 120.608C673.8 120.608 675.192 121.04 675.864 121.904C676.632 122.672 677.256 124.112 677.736 126.224C679.752 125.84 681.864 125.648 684.072 125.648C688.776 125.648 691.128 127.328 691.128 130.688C691.128 132.704 690.408 137.504 688.968 145.088C686.76 156.128 685.656 163.808 685.656 168.128C685.656 169.568 685.992 170.72 686.664 171.584C687.432 172.448 688.392 172.88 689.544 172.88C691.368 172.88 693.576 171.728 696.168 169.424C698.76 167.024 702.264 163.184 706.68 157.904C707.832 156.56 709.128 155.888 710.568 155.888C711.816 155.888 712.776 156.464 713.448 157.616C714.216 158.768 714.6 160.352 714.6 162.368C714.6 166.208 713.688 169.184 711.864 171.296C707.928 176.192 703.752 180.32 699.336 183.68C694.92 187.04 690.648 188.72 686.52 188.72C683.352 188.72 680.424 187.664 677.736 185.552C675.144 183.344 673.176 180.368 671.832 176.624C666.84 184.688 660.552 188.72 652.968 188.72ZM658.152 174.176C660.264 174.176 662.28 172.928 664.2 170.432C666.12 167.936 667.512 164.624 668.376 160.496L673.704 134C669.672 134.096 665.928 135.632 662.472 138.608C659.112 141.488 656.424 145.328 654.408 150.128C652.392 154.928 651.384 160.016 651.384 165.392C651.384 168.368 651.96 170.576 653.112 172.016C654.36 173.456 656.04 174.176 658.152 174.176ZM729.68 191.888C724.688 191.888 720.848 190.736 718.16 188.432C715.568 186.128 714.272 183.536 714.272 180.656C714.272 178.16 715.184 176 717.008 174.176C718.832 172.352 721.52 171.44 725.072 171.44C726.32 171.44 727.76 171.584 729.392 171.872C731.12 172.064 732.416 172.208 733.28 172.304C733.184 169.808 732.608 167.456 731.552 165.248C730.592 163.04 729.344 160.928 727.808 158.912C726.272 156.8 724.832 154.976 723.488 153.44C720.512 159.104 717.536 163.808 714.56 167.552C711.68 171.296 708.512 174.848 705.056 178.208C703.328 179.936 701.504 180.8 699.584 180.8C698.048 180.8 696.8 180.272 695.84 179.216C694.88 178.064 694.4 176.672 694.4 175.04C694.4 173.12 695.072 171.344 696.416 169.712L698.288 167.408C703.568 160.88 707.552 155.504 710.24 151.28C711.872 148.496 713.792 144.8 716 140.192C718.208 135.488 720.368 130.64 722.48 125.648C724.304 121.424 728.096 119.312 733.856 119.312C736.544 119.312 738.416 119.552 739.472 120.032C740.528 120.512 741.056 121.28 741.056 122.336C741.056 122.912 740.864 123.824 740.48 125.072C740.096 126.32 739.568 127.568 738.896 128.816C737.168 132.272 736.304 135.2 736.304 137.6C736.304 139.04 736.784 140.624 737.744 142.352C738.8 144.08 740.384 146.24 742.496 148.832C745.568 152.864 747.872 156.32 749.408 159.2C751.04 161.984 751.856 165.056 751.856 168.416C751.856 169.376 751.76 170.72 751.568 172.448C756.272 170.624 761.792 165.776 768.128 157.904C769.28 156.56 770.576 155.888 772.016 155.888C773.264 155.888 774.224 156.464 774.896 157.616C775.664 158.768 776.048 160.352 776.048 162.368C776.048 166.016 775.136 168.992 773.312 171.296C768.512 177.248 763.904 181.328 759.488 183.536C755.168 185.648 749.792 186.8 743.36 186.992C739.52 190.256 734.96 191.888 729.68 191.888ZM783.214 111.392C779.182 111.392 776.158 110.48 774.142 108.656C772.126 106.736 771.118 104.096 771.118 100.736C771.118 97.376 772.414 94.592 775.006 92.384C777.694 90.08 781.006 88.928 784.942 88.928C788.494 88.928 791.374 89.792 793.582 91.52C795.79 93.248 796.894 95.696 796.894 98.864C796.894 102.704 795.646 105.776 793.15 108.08C790.654 110.288 787.342 111.392 783.214 111.392ZM782.062 188.72C775.822 188.72 771.262 186.512 768.382 182.096C765.598 177.68 764.206 171.824 764.206 164.528C764.206 160.208 764.734 154.688 765.79 147.968C766.942 141.152 768.382 134.816 770.11 128.96C770.974 125.888 772.126 123.776 773.566 122.624C775.006 121.472 777.31 120.896 780.478 120.896C785.374 120.896 787.822 122.528 787.822 125.792C787.822 128.192 786.91 133.76 785.086 142.496C782.782 153.056 781.63 160.208 781.63 163.952C781.63 166.832 782.014 169.04 782.782 170.576C783.55 172.112 784.846 172.88 786.67 172.88C788.398 172.88 790.558 171.68 793.15 169.28C795.742 166.88 799.198 163.088 803.518 157.904C804.67 156.56 805.966 155.888 807.406 155.888C808.654 155.888 809.614 156.464 810.286 157.616C811.054 158.768 811.438 160.352 811.438 162.368C811.438 166.208 810.526 169.184 808.702 171.296C799.198 182.912 790.318 188.72 782.062 188.72ZM810.011 188.72C806.363 188.72 803.771 186.8 802.235 182.96C800.795 179.12 800.075 172.976 800.075 164.528C800.075 152.048 801.851 140.192 805.403 128.96C806.267 126.176 807.659 124.16 809.579 122.912C811.595 121.568 814.379 120.896 817.931 120.896C819.851 120.896 821.195 121.136 821.963 121.616C822.731 122.096 823.115 123.008 823.115 124.352C823.115 125.888 822.395 129.344 820.955 134.72C819.995 138.56 819.227 141.92 818.651 144.8C818.075 147.68 817.595 151.232 817.211 155.456C820.379 147.2 823.931 140.48 827.867 135.296C831.803 130.112 835.643 126.416 839.387 124.208C843.227 122 846.731 120.896 849.899 120.896C856.139 120.896 859.259 124.016 859.259 130.256C859.259 134 858.203 140.768 856.091 150.56C854.267 158.912 853.355 164.432 853.355 167.12C853.355 170.96 854.747 172.88 857.531 172.88C859.451 172.88 861.707 171.728 864.299 169.424C866.987 167.024 870.539 163.184 874.955 157.904C876.107 156.56 877.403 155.888 878.843 155.888C880.091 155.888 881.051 156.464 881.723 157.616C882.491 158.768 882.875 160.352 882.875 162.368C882.875 166.208 881.963 169.184 880.139 171.296C876.011 176.384 871.547 180.56 866.747 183.824C862.043 187.088 856.667 188.72 850.619 188.72C845.723 188.72 842.027 187.328 839.531 184.544C837.035 181.664 835.787 177.536 835.787 172.16C835.787 169.472 836.459 164.672 837.803 157.76C839.051 151.712 839.675 147.536 839.675 145.232C839.675 143.696 839.147 142.928 838.091 142.928C836.843 142.928 835.067 144.56 832.763 147.824C830.555 150.992 828.251 155.216 825.851 160.496C823.547 165.776 821.675 171.344 820.235 177.2C819.179 181.712 817.931 184.784 816.491 186.416C815.147 187.952 812.987 188.72 810.011 188.72ZM920.041 125.648C922.441 125.648 924.121 126.032 925.081 126.8C926.137 127.472 926.665 128.864 926.665 130.976C926.665 132.128 926.617 133.04 926.521 133.712C926.137 136.688 924.937 144.368 922.921 156.752C921.481 165.104 920.569 170.624 920.185 173.312C916.537 198.08 911.593 217.616 905.353 231.92C899.209 246.32 890.953 253.52 880.585 253.52C875.689 253.52 871.705 251.984 868.633 248.912C865.561 245.936 864.024 242 864.024 237.104C864.024 230.288 866.713 222.944 872.089 215.072C877.465 207.296 887.545 197.696 902.328 186.272L903.193 180.656C901.561 183.248 899.401 185.264 896.713 186.704C894.121 188.048 891.529 188.72 888.937 188.72C882.985 188.72 878.233 186.56 874.681 182.24C871.129 177.92 869.353 172.256 869.353 165.248C869.353 157.568 871.129 150.32 874.681 143.504C878.233 136.592 882.937 131.072 888.793 126.944C894.745 122.72 901.033 120.608 907.657 120.608C909.769 120.608 911.161 121.04 911.833 121.904C912.601 122.672 913.225 124.112 913.705 126.224C915.529 125.84 917.641 125.648 920.041 125.648ZM894.121 174.176C896.329 174.176 898.441 172.832 900.457 170.144C902.473 167.456 903.913 163.616 904.777 158.624L909.385 134C905.449 134.096 901.801 135.632 898.441 138.608C895.081 141.488 892.393 145.328 890.377 150.128C888.361 154.928 887.353 160.016 887.353 165.392C887.353 168.368 887.929 170.576 889.081 172.016C890.329 173.456 892.009 174.176 894.121 174.176ZM882.169 239.552C884.569 239.552 887.257 236.672 890.233 230.912C893.305 225.152 896.233 215.984 899.017 203.408C891.625 209.744 886.297 215.456 883.033 220.544C879.769 225.632 878.137 230.096 878.137 233.936C878.137 235.568 878.425 236.912 879.001 237.968C879.673 239.024 880.729 239.552 882.169 239.552Z" fill="#2B5B84"/>
<path d="M49.7625 220.803C49.6544 220.803 49.4922 220.803 49.384 220.755C48.3566 220.561 47.7077 219.641 47.924 218.77C63.389 152.539 78.7458 113.71 88.8575 92.7468C99.9425 69.8468 107.351 62.7783 107.621 62.4878C108.324 61.81 109.568 61.81 110.27 62.4394C111.028 63.0687 111.028 64.1339 110.325 64.8117C110.216 64.9085 102.862 72.0738 92.0478 94.5381C82.0443 115.308 66.9037 153.846 51.5469 219.447C51.4388 220.27 50.6277 220.803 49.7625 220.803Z" fill="#DC8744"/>
<path d="M118.706 63.9402C130.061 53.289 135.577 27 135.577 27C135.577 27 112.866 32.4708 102.917 53.047C101.835 55.274 100.159 57.9852 101.835 62.4878C103.187 66.1673 109.027 73.1389 118.706 63.9402Z" fill="#F6C358"/>
<path d="M135.577 27C135.577 27 130.061 53.289 118.706 63.9402C112.055 70.1373 107.351 69.169 104.593 66.6514L135.577 27Z" fill="#FCD462"/>
<path d="M100.97 71.396C100.97 57.5011 85.4509 36.4408 85.4509 36.4408C85.4509 36.4408 73.8251 53.5311 82.1524 73.381C82.9635 75.6081 84.099 78.3193 88.2627 80.5464C92.1019 82.2893 100.97 83.5481 100.97 71.396Z" fill="#F6C358"/>
<path d="M85.505 36.1987C85.505 36.1987 101.024 57.5011 101.024 71.154C101.024 79.0939 97.1307 81.321 93.5619 81.321L85.505 36.1987Z" fill="#FCD462"/>
<path d="M110.973 90.9555C125.357 85.7267 141.687 65.199 141.687 65.199C141.687 65.199 119.517 61.9552 102.105 76.0922C100.159 77.5931 97.6714 79.5781 96.8603 83.7901C96.5359 87.518 98.4825 95.458 110.973 90.9555Z" fill="#F6C358"/>
<path d="M141.687 65.199C141.687 65.199 125.357 85.7751 110.973 90.9555C102.646 93.9087 99.0774 91.4396 97.6714 88.4863L141.687 65.199Z" fill="#FCD462"/>
<path d="M86.5864 103.882C86.5864 89.9872 71.0674 68.9269 71.0674 68.9269C71.0674 68.9269 59.4416 86.0172 67.7689 105.867C68.58 108.094 69.7156 110.805 73.8792 113.032C77.7184 114.775 86.5864 115.986 86.5864 103.882Z" fill="#F6C358"/>
<path d="M71.0674 68.9269C71.0674 68.9269 86.5864 90.2292 86.5864 103.882C86.5864 111.822 82.6932 114.049 79.1243 114.049L71.0674 68.9269Z" fill="#FCD462"/>
<path d="M99.6181 116.76C114.002 112.064 131.467 91.9722 131.467 91.9722C131.467 91.9722 109.622 88.0022 91.6152 101.655C89.6686 103.156 86.9109 104.899 86.0998 109.353C85.1805 112.79 86.8568 120.972 99.6181 116.76Z" fill="#F6C358"/>
<path d="M131.467 91.9722C131.467 91.9722 114.326 112.064 99.6181 116.76C91.2908 119.472 87.722 117.002 86.3161 113.807L131.467 91.9722Z" fill="#FCD462"/>
<path d="M75.2311 131.139C75.2311 117.244 59.712 96.1842 59.712 96.1842C59.712 96.1842 48.0863 113.274 56.4136 133.124C57.2247 135.351 58.3602 138.063 62.5238 140.29C66.363 142.033 75.2311 143.291 75.2311 131.139Z" fill="#F6C358"/>
<path d="M59.712 96.1842C59.712 96.1842 75.231 117.487 75.231 131.139C75.231 139.079 71.3378 141.306 67.7689 141.306L59.712 96.1842Z" fill="#FCD462"/>
<path d="M88.2627 144.744C103.187 141.5 122.599 122.909 122.599 122.909C122.599 122.909 101.294 116.954 81.882 128.864C79.665 130.123 76.9073 131.575 75.5014 135.787C74.4199 139.564 74.9607 147.746 88.2627 144.744Z" fill="#F6C358"/>
<path d="M122.599 122.957C122.599 122.957 103.241 141.306 88.2627 144.792C79.6651 146.777 76.3666 143.824 75.5014 140.58L122.599 122.957Z" fill="#FCD462"/>
<path d="M65.0112 163.335C65.0112 149.44 49.4922 128.38 49.4922 128.38C49.4922 128.38 37.8664 145.47 46.1937 165.32C47.0048 167.547 48.1403 170.258 52.304 172.485C56.1432 174.277 65.0112 175.487 65.0112 163.335Z" fill="#F6C358"/>
<path d="M49.4922 128.38C49.4922 128.38 65.0112 149.682 65.0112 163.335C65.0112 171.275 61.1179 173.502 57.5491 173.502L49.4922 128.38Z" fill="#FCD462"/>
<path d="M78.5836 175.487C93.2374 171.033 110.703 151.183 110.703 151.183C110.703 151.183 88.8575 146.971 70.5807 160.333C68.6341 161.834 65.8764 163.577 65.0653 167.789C64.146 171.275 65.8223 179.457 78.5836 175.487Z" fill="#F6C358"/>
<path d="M110.703 150.941C110.703 150.941 93.2374 170.791 78.5836 175.245C69.9859 177.956 66.6875 175.245 65.2816 172.001L110.703 150.941Z" fill="#FCD462"/>
<path d="M100.7 227C100.483 227 100.267 226.952 100.051 226.903C99.0773 226.564 98.5366 225.596 98.9151 224.725C133.035 140.483 155.854 123.732 156.828 123.103C157.639 122.522 158.828 122.667 159.477 123.393C160.126 124.119 159.964 125.184 159.153 125.765C158.882 125.959 136.009 143.001 102.43 225.886C102.214 226.613 101.511 227 100.7 227Z" fill="#DC8744"/>
<path d="M164.668 125.184C173.536 118.987 180.187 101.365 180.187 101.365C180.187 101.365 164.127 103.107 154.989 116.228C154.178 117.729 152.502 119.472 153.313 122.667C153.854 125.669 156.936 130.897 164.668 125.184Z" fill="#F6C358"/>
<path d="M180.187 101.655C180.187 101.655 173.536 118.987 164.668 125.475C159.693 129.203 156.341 127.944 154.719 126.201L180.187 101.655Z" fill="#FCD462"/>
<path d="M151.637 128.912C153.042 119.472 144.986 103.64 144.986 103.64C144.986 103.64 135.306 114.291 138.875 128.67C139.146 130.171 139.686 132.156 142.174 134.141C144.445 135.594 150.555 137.094 151.637 128.912Z" fill="#F6C358"/>
<path d="M144.986 103.592C144.986 103.592 153.313 119.472 151.637 128.864C150.825 134.335 147.743 135.545 145.256 135.061L144.986 103.592Z" fill="#FCD462"/>
<path d="M156.341 143.049C166.561 140.822 180.133 128.186 180.133 128.186C180.133 128.186 165.479 123.974 151.907 132.156C150.501 133.124 148.608 134.141 147.473 137.094C146.932 139.564 147.473 145.034 156.341 143.049Z" fill="#F6C358"/>
<path d="M180.187 128.138C180.187 128.138 166.615 140.774 156.395 143.001C150.285 144.26 148.068 142.275 147.527 140.048L180.187 128.138Z" fill="#FCD462"/>
<path d="M138.389 149.973C139.795 140.532 131.738 124.7 131.738 124.7C131.738 124.7 122.058 135.351 125.627 149.731C125.898 151.231 126.438 153.216 128.926 155.201C131.143 156.412 137.253 158.155 138.389 149.973Z" fill="#F6C358"/>
<path d="M131.738 124.7C131.738 124.7 140.065 140.58 138.389 149.973C137.577 155.443 134.495 156.654 132.008 156.17L131.738 124.7Z" fill="#FCD462"/>
<path d="M145.851 159.898C156.395 157.913 170.238 145.761 170.238 145.761C170.238 145.761 155.584 141.064 142.012 149.004C140.606 149.731 138.389 150.747 137.578 153.701C136.442 155.928 136.712 161.35 145.851 159.898Z" fill="#F6C358"/>
<path d="M170.184 145.519C170.184 145.519 156.341 157.671 145.797 159.656C139.686 160.914 137.469 158.687 137.199 156.412L170.184 145.519Z" fill="#FCD462"/>
<path d="M127.574 167.547C128.98 158.106 120.923 142.275 120.923 142.275C120.923 142.275 111.244 152.926 114.813 167.305C115.083 168.806 115.624 170.791 118.111 172.776C120.382 174.035 126.438 175.729 127.574 167.547Z" fill="#F6C358"/>
<path d="M120.923 142.275C120.923 142.275 129.25 158.155 127.574 167.547C126.763 173.018 123.681 174.228 121.193 173.744L120.923 142.275Z" fill="#FCD462"/>
<path d="M135.036 177.956C145.58 176.988 160.775 166.046 160.775 166.046C160.775 166.046 146.932 160.091 132.278 166.53C130.602 167.257 128.655 168.031 127.304 170.742C126.168 173.26 125.898 178.731 135.036 177.956Z" fill="#F6C358"/>
<path d="M161.045 166.095C161.045 166.095 145.797 176.988 135.306 178.005C129.196 178.489 127.304 176.262 126.979 174.035L161.045 166.095Z" fill="#FCD462"/>
<path d="M117.3 188.656C118.706 179.215 110.649 163.383 110.649 163.383C110.649 163.383 100.97 174.035 104.539 188.414C104.809 189.915 105.35 191.9 107.837 193.885C110.108 195.337 115.948 196.838 117.3 188.656Z" fill="#F6C358"/>
<path d="M110.703 163.335C110.703 163.335 119.03 179.215 117.354 188.607C116.543 194.078 113.461 195.289 110.973 194.804L110.703 163.335Z" fill="#FCD462"/>
<path d="M125.357 198.048C135.901 196.305 150.014 184.153 150.014 184.153C150.014 184.153 135.631 179.457 121.788 186.864C120.382 187.591 118.165 188.607 117.084 191.561C115.948 194.078 116.219 199.549 125.357 198.048Z" fill="#F6C358"/>
<path d="M149.69 184.153C149.69 184.153 135.577 196.305 125.032 198.048C118.922 199.016 116.705 197.08 116.435 194.804L149.69 184.153Z" fill="#FCD462"/>
</svg>
